PathFileType	4	(X/Y/Z)	12_2_73_p1_0-815.trc
DataRate	CameraRate	NumFrames	NumMarkers	Units	OrigDataRate	OrigDataStartFrame	OrigNumFrames
59.0	59.0	5	27	m	59.0	714	816
Frame#	Time	RHip			RKnee			RAnkle			RBigToe			RSmallToe			RHeel			LHip			LKnee			LAnkle			LBigToe			LSmallToe			LHeel			Neck			Head			Nose			RShoulder			RElbow			RWrist			RThumb			RIndex			RPinky			LShoulder			LElbow			LWrist			LThumb			LIndex			LPinky			
		X1	Y1	Z1	X2	Y2	Z2	X3	Y3	Z3	X4	Y4	Z4	X5	Y5	Z5	X6	Y6	Z6	X7	Y7	Z7	X8	Y8	Z8	X9	Y9	Z9	X10	Y10	Z10	X11	Y11	Z11	X12	Y12	Z12	X13	Y13	Z13	X14	Y14	Z14	X15	Y15	Z15	X16	Y16	Z16	X17	Y17	Z17	X18	Y18	Z18	X19	Y19	Z19	X20	Y20	Z20	X21	Y21	Z21	X22	Y22	Z22	X23	Y23	Z23	X24	Y24	Z24	X25	Y25	Z25	X26	Y26	Z26	X27	Y27	Z27	
714	12.101694915254237	0.43339302825121406	0.5231865985811769	1.0628658523490975	0.47567479860332573	0.5548757046333672	1.5116960809848075	0.4897934835728586	0.6129258019769409	1.927855307200931	0.4743219807340171	0.377745438308663	1.9258968440795319	0.5296309454308407	0.4134542551212365	1.9222386198816732	0.4731577522291622	0.6681352836945287	2.0146973758410804	0.2027112250239594	0.5364725776789894	1.1097555647089334	0.25074396552096917	0.5439855138547508	1.5414258106768806	0.3117237943721253	0.587262951355596	1.9485703187898087	0.33035171976938205	0.3823830239969841	1.9416092230989488	0.2598124022220971	0.4320805875879221	1.9501992053171326	0.3363549390983292	0.6457734478868438	2.006074700039082	0.24128745671028642	0.5841013004768034	0.44719914795362453	0.22606483525460297	0.512690101078575	0.17526648463918046	0.24524614605100828	0.46635396563633097	0.3106151294173062	0.4362166349473108	0.5665070141468603	0.5225718977231876	0.49084131738717346	0.5303761959423952	0.8088832448517089	0.38312833401676927	0.3484108649791412	0.9949034471674063	0.33177273962918524	0.336028071590342	1.0582064167864829	0.3217006492826255	0.35704433922056145	1.0977622481400355	0.3042990870584212	0.3670387760874568	1.0996562093735447	0.0857513338347792	0.6101170129236178	0.5604667318380763	0.07219958154745891	0.5132807500819491	0.8416333381366851	0.25219731318347544	0.40729995301893607	1.0062393578680462	0.3599526602751488	0.3452462587181997	1.034080395692976	0.36857921777851044	0.3397293254009676	1.0812002196015889	0.3342861253908897	0.3513879516290572	1.09804512070927
715	12.11864406779661	0.43338594960362137	0.5231304734635327	1.0628763087061894	0.4749132963106297	0.5566735586603545	1.5080363182943628	0.48977772606278996	0.6129246153207303	1.9278676850141032	0.4701915433755932	0.36632697624362265	1.9186189614783031	0.5295943397918912	0.4136333849248441	1.9223139941833953	0.4730038469808849	0.6679125483056927	2.014546327727965	0.20271120339735768	0.5364924722959813	1.10967366589604	0.2511807074391536	0.5439453311124338	1.5369512247540993	0.3117404620402911	0.5872863761025361	1.94846768266497	0.3262780740279203	0.39566055314454107	1.9514800615073544	0.25975078012685165	0.4320630331825701	1.9501423953351056	0.3356733790875578	0.6478579838177015	2.00267942764878	0.24125426034032246	0.5840791324224142	0.4471658416117719	0.22992925406911402	0.5002462906576794	0.17419259496145506	0.2453393861061271	0.46624976679186175	0.31065088181414324	0.43617916080140684	0.5666456182685256	0.5225671319143669	0.4908081372098404	0.5303172441965543	0.8087541745752768	0.38317370428637376	0.3484774808545552	0.9948748098996405	0.33163720516146633	0.33624802138420845	1.0585447299048987	0.32164084081256794	0.35725497375739707	1.0974610441810844	0.30437857016899905	0.3670738656835891	1.0997159391823523	0.08574667096891403	0.6099526103908864	0.560546163228213	0.07219561359630043	0.513242326325696	0.8416403730738302	0.2563914820933582	0.3946684302699061	1.0011252956076928	0.3599020433413737	0.34535914087512215	1.037523597372618	0.37198715422715245	0.3268375704299401	1.075647946364982	0.3307161483959799	0.3633117067645052	1.1031287712314912
716	12.135593220338983	0.429787639448552	0.5370865969636746	1.0720451733040905	0.475217124845199	0.5563094589830558	1.5036767279133283	0.48983415428780963	0.612890932816514	1.9278120846830473	0.47435924619060915	0.3779856622659561	1.925965747365903	0.5294932237911102	0.4135389575288705	1.922167575339408	0.4732526210477691	0.6683945900521424	2.0148022995003707	0.20268336407600157	0.5364886667357508	1.1098647853270436	0.2511385829053356	0.5438410332920832	1.5368909555446375	0.3123069087912916	0.5870755892009134	1.9430152242660703	0.32631126975004604	0.3959775882954505	1.9516135233106036	0.25979385797930143	0.43228522805225755	1.9502727337818961	0.3365034830596201	0.6455296604352501	2.0059384779777374	0.24072990547495932	0.5848316414811074	0.4436820330682443	0.22984087947439696	0.5003255564733744	0.1741612231325725	0.24555800602901431	0.4658741594080962	0.31371711836195026	0.436185000879318	0.5664411349214868	0.5225659495490874	0.4908092492621254	0.5301737763973322	0.8088646392180208	0.3832523114356002	0.34851524774251347	0.994864456372939	0.33584911577286264	0.33599916953087433	1.061363777949239	0.3263009774309839	0.3577191173421921	1.1006600830611344	0.30454328069589004	0.3668716000717154	1.0995654865305207	0.08577881954776308	0.6101407622517574	0.5602599196681098	0.07222671174662507	0.5132356447886436	0.8418055085919989	0.26036171205775827	0.3966753657156929	1.0013880416017722	0.3598899005916828	0.34473510975202215	1.0375802139429666	0.3729254796943953	0.3278975022641503	1.0794448252705502	0.33425760189532444	0.3735507717223406	1.106849830232714
717	12.152542372881356	0.4334238213077867	0.5231411647298865	1.0627079243020956	0.4752564333865673	0.556151340034525	1.5035946495015755	0.48988783543172926	0.6129136010179392	1.9278100434255363	0.4728214280159495	0.3766544796297721	1.9206203560834787	0.5294599755280222	0.4134301690536135	1.9220920698030113	0.4733956595662428	0.6686266807325244	2.0149206354890326	0.20272662955184562	0.5365521376105244	1.109713592412183	0.24683555288032732	0.5414681759012161	1.536300982509624	0.31225750849072	0.5870141086292654	1.9429810606907223	0.32633738183448807	0.3954832075490647	1.9513662714613793	0.2597979687546292	0.43208496749943026	1.950277998358028	0.336313708552052	0.6452900630095015	2.005730093129915	0.2412358350911968	0.5841075443074959	0.4471778286803636	0.23019692139577572	0.4999893456382054	0.17671644368682152	0.24553204033893028	0.46585957010419066	0.3137089832262085	0.43617685267961176	0.5665898778634664	0.5225994027285661	0.490819471877206	0.5301803667893933	0.8088434010621851	0.3832460556286865	0.3487086820841919	0.9949283532815717	0.33925633363170815	0.3244746309077365	1.052369401717647	0.32184299420750445	0.3569096470299686	1.0973652346773763	0.30443947308449465	0.36766116295143425	1.1000158175091808	0.08573889940427809	0.6101170471630399	0.5603353614309149	0.07224639461706649	0.5132348105733534	0.841777184141469	0.26025411371933155	0.3967476523419343	1.0012611312018131	0.3603227144044583	0.32200756196891006	1.0287698933701477	0.37198668667047013	0.3266721423380896	1.0755400425992998	0.33327722849620894	0.3726980123269992	1.1031928509112758
718	12.169491525423728	0.4333043173372843	0.5234700464524618	1.066404546416408	0.47526779606575376	0.5564502157904561	1.5037435115363804	0.48984012772144914	0.613021646334504	1.92787827993997	0.4728150812387625	0.37677206409136044	1.9207623276680803	0.5294880307071164	0.41378579520073483	1.9222940534857837	0.4731310312962265	0.6678502747445985	2.014542648278114	0.20275211363217735	0.5365616611987147	1.1097032619780283	0.25112859776838653	0.5438823121254566	1.536935742781883	0.31225797251952636	0.5870338432275052	1.9430469444045957	0.32628669715001213	0.39560294345541086	1.9515214246586299	0.25974714785598096	0.4321604920226337	1.9504644425610997	0.3362679206660146	0.645180836224698	2.00560002730952	0.24123850036591507	0.5841243579214904	0.447214428692519	0.23031134463780706	0.49987376327450267	0.17679548080458543	0.2456447743571585	0.46576587399809044	0.3138627505787504	0.4361716554725501	0.5666304854720015	0.5225856638580625	0.4908202304219574	0.5302365993921196	0.8088595937852863	0.38330651462938103	0.34869835452019704	0.9948422932702583	0.33926082923453416	0.32422739160986225	1.052007905787405	0.32179813605087276	0.3567243850342408	1.0971814854309496	0.30453193003761525	0.3676238594764537	1.0999767852269131	0.08571959629689478	0.6101151132210563	0.5603703153156557	0.07229193086320605	0.5131039449429654	0.8417395265276192	0.25641155956964945	0.3947513268345806	1.001045491568173	0.36046106631939395	0.32218393728407274	1.0252221447585352	0.3721641212569182	0.3268267143528401	1.0753545058459635	0.329975348727563	0.36278299472593334	1.0997751888001948
